# xmcd
#
# Track frame offsets:
#	150
#	34196
#	84671
#	113784
#	136447
#	163626
#	185604
#	218610
#	254618
#	290658
#	326513
#
# Disc length: 4680 seconds
# Revision: 0
# Processed by: cddbd v1.5.2PL0 Copyright (c) Steve Scherf et al.
# Submitted via: dBpowerAMP V12.0
#
DISCID=a312460b
DTITLE=Ingrid Noll - Hab und Gier CD1
DYEAR=1900
DGENRE=
TTITLE0=Das Gabelfrühstück
TTITLE1=Das Gabelfrühstück
TTITLE2=Sensationslüstern
TTITLE3=Sensationslüstern
TTITLE4=Sensationslüstern
TTITLE5=Sensationslüstern
TTITLE6=In der Höhle des Wolfes
TTITLE7=In der Höhle des Wolfes
TTITLE8=Schmutzige Wäsche
TTITLE9=Schmutzige Wäsche
TTITLE10=Das dritte Testament
EXTD=
EXTT0=
EXTT1=
EXTT2=
EXTT3=
EXTT4=
EXTT5=
EXTT6=
EXTT7=
EXTT8=
EXTT9=
EXTT10=
PLAYORDER=
